<svg width="148" height="25" viewBox="0 0 148 25" fill="none" xmlns="http://www.w3.org/2000/svg">
<rect x="0.25" y="0.25" width="147.5" height="24.5" rx="12.25" fill="#FAFAFA"/>
<rect x="0.25" y="0.25" width="147.5" height="24.5" rx="12.25" stroke="#E5E5E5" stroke-width="0.5"/>
<path d="M15.008 10.584C15.008 10.088 14.864 9.7 14.576 9.42C14.288 9.132 13.892 8.988 13.388 8.988H10.976V8.1H13.388C14.172 8.1 14.8 8.324 15.272 8.772C15.744 9.22 15.98 9.824 15.98 10.584H15.008ZM10.46 16.5V8.1H11.36V16.5H10.46ZM10.976 13.068V12.18H13.388C13.892 12.18 14.288 12.04 14.576 11.76C14.864 11.472 15.008 11.08 15.008 10.584H15.98C15.98 11.336 15.744 11.94 15.272 12.396C14.8 12.844 14.172 13.068 13.388 13.068H10.976ZM19.3365 16.644C18.7605 16.644 18.2485 16.512 17.8005 16.248C17.3605 15.984 17.0125 15.616 16.7565 15.144C16.5085 14.672 16.3845 14.124 16.3845 13.5C16.3845 12.876 16.5085 12.328 16.7565 11.856C17.0125 11.384 17.3605 11.016 17.8005 10.752C18.2485 10.488 18.7605 10.356 19.3365 10.356C19.9205 10.356 20.4325 10.488 20.8725 10.752C21.3125 11.016 21.6565 11.384 21.9045 11.856C22.1605 12.328 22.2885 12.876 22.2885 13.5C22.2885 14.124 22.1605 14.672 21.9045 15.144C21.6565 15.616 21.3125 15.984 20.8725 16.248C20.4325 16.512 19.9205 16.644 19.3365 16.644ZM19.3365 15.768C19.7365 15.768 20.0885 15.676 20.3925 15.492C20.7045 15.3 20.9485 15.036 21.1245 14.7C21.3005 14.356 21.3885 13.956 21.3885 13.5C21.3885 13.036 21.3005 12.636 21.1245 12.3C20.9485 11.964 20.7045 11.704 20.3925 11.52C20.0885 11.328 19.7365 11.232 19.3365 11.232C18.9365 11.232 18.5805 11.328 18.2685 11.52C17.9645 11.704 17.7245 11.964 17.5485 12.3C17.3725 12.636 17.2845 13.036 17.2845 13.5C17.2845 13.956 17.3725 14.356 17.5485 14.7C17.7245 15.036 17.9645 15.3 18.2685 15.492C18.5805 15.676 18.9365 15.768 19.3365 15.768ZM24.4093 16.5L22.4773 10.596V10.5H23.3773L24.9853 15.54L25.2493 16.5H24.4093ZM24.4093 16.5L24.7453 15.54L26.4613 10.5H27.2773V10.596L25.2493 16.5H24.4093ZM28.4893 16.5L26.4613 10.596V10.5H27.2773L28.9933 15.54L29.3293 16.5H28.4893ZM28.4893 16.5L28.7533 15.54L30.3493 10.5H31.2613V10.596L29.3293 16.5H28.4893ZM34.3596 16.644C33.7916 16.644 33.2876 16.512 32.8476 16.248C32.4076 15.984 32.0636 15.616 31.8156 15.144C31.5676 14.672 31.4436 14.124 31.4436 13.5C31.4436 12.876 31.5636 12.328 31.8036 11.856C32.0516 11.384 32.3916 11.016 32.8236 10.752C33.2636 10.488 33.7676 10.356 34.3356 10.356C34.8956 10.356 35.3836 10.492 35.7996 10.764C36.2236 11.028 36.5556 11.404 36.7956 11.892C37.0356 12.372 37.1556 12.932 37.1556 13.572V13.68L36.9756 13.848H31.9716V12.972H36.6276L36.2316 13.14C36.1996 12.74 36.0956 12.4 35.9196 12.12C35.7436 11.832 35.5196 11.612 35.2476 11.46C34.9756 11.308 34.6716 11.232 34.3356 11.232C33.9676 11.232 33.6316 11.324 33.3276 11.508C33.0236 11.684 32.7836 11.936 32.6076 12.264C32.4316 12.592 32.3436 12.972 32.3436 13.404V13.56C32.3436 13.992 32.4276 14.376 32.5956 14.712C32.7716 15.04 33.0116 15.3 33.3156 15.492C33.6196 15.676 33.9676 15.768 34.3596 15.768C34.7516 15.768 35.0876 15.676 35.3676 15.492C35.6476 15.308 35.8676 15.056 36.0276 14.736H36.1596L36.9156 15.072C36.6916 15.552 36.3556 15.936 35.9076 16.224C35.4676 16.504 34.9516 16.644 34.3596 16.644ZM38.2316 16.5V10.5H39.1076V12.24L38.8436 12.012C38.9796 11.548 39.2396 11.18 39.6236 10.908C40.0156 10.636 40.4556 10.5 40.9436 10.5H41.5676V11.376H40.7996C40.4716 11.376 40.1796 11.456 39.9236 11.616C39.6756 11.776 39.4796 11.996 39.3356 12.276C39.1996 12.556 39.1316 12.884 39.1316 13.26V16.5H38.2316ZM44.614 16.644C44.046 16.644 43.542 16.512 43.102 16.248C42.662 15.984 42.318 15.616 42.07 15.144C41.822 14.672 41.698 14.124 41.698 13.5C41.698 12.876 41.818 12.328 42.058 11.856C42.306 11.384 42.646 11.016 43.078 10.752C43.518 10.488 44.022 10.356 44.59 10.356C45.15 10.356 45.638 10.492 46.054 10.764C46.478 11.028 46.81 11.404 47.05 11.892C47.29 12.372 47.41 12.932 47.41 13.572V13.68L47.23 13.848H42.226V12.972H46.882L46.486 13.14C46.454 12.74 46.35 12.4 46.174 12.12C45.998 11.832 45.774 11.612 45.502 11.46C45.23 11.308 44.926 11.232 44.59 11.232C44.222 11.232 43.886 11.324 43.582 11.508C43.278 11.684 43.038 11.936 42.862 12.264C42.686 12.592 42.598 12.972 42.598 13.404V13.56C42.598 13.992 42.682 14.376 42.85 14.712C43.026 15.04 43.266 15.3 43.57 15.492C43.874 15.676 44.222 15.768 44.614 15.768C45.006 15.768 45.342 15.676 45.622 15.492C45.902 15.308 46.122 15.056 46.282 14.736H46.414L47.17 15.072C46.946 15.552 46.61 15.936 46.162 16.224C45.722 16.504 45.206 16.644 44.614 16.644ZM50.9579 16.644C50.4299 16.644 49.9499 16.508 49.5179 16.236C49.0939 15.964 48.7539 15.592 48.4979 15.12C48.2499 14.648 48.1259 14.108 48.1259 13.5C48.1259 12.892 48.2499 12.352 48.4979 11.88C48.7539 11.408 49.0939 11.036 49.5179 10.764C49.9499 10.492 50.4299 10.356 50.9579 10.356C51.3659 10.356 51.7419 10.44 52.0859 10.608C52.4299 10.768 52.7259 10.996 52.9739 11.292C53.2219 11.58 53.4059 11.924 53.5259 12.324V14.676C53.4059 15.068 53.2219 15.412 52.9739 15.708C52.7259 16.004 52.4299 16.236 52.0859 16.404C51.7419 16.564 51.3659 16.644 50.9579 16.644ZM50.9939 15.768C51.3939 15.768 51.7459 15.672 52.0499 15.48C52.3619 15.288 52.6059 15.024 52.7819 14.688C52.9659 14.344 53.0579 13.948 53.0579 13.5C53.0579 13.052 52.9659 12.66 52.7819 12.324C52.6059 11.98 52.3619 11.712 52.0499 11.52C51.7459 11.328 51.3939 11.232 50.9939 11.232C50.6179 11.232 50.2779 11.328 49.9739 11.52C49.6779 11.712 49.4459 11.98 49.2779 12.324C49.1099 12.66 49.0259 13.052 49.0259 13.5C49.0259 13.948 49.1099 14.344 49.2779 14.688C49.4459 15.024 49.6779 15.288 49.9739 15.48C50.2779 15.672 50.6179 15.768 50.9939 15.768ZM53.0819 16.5V14.256L53.2259 13.5L53.0579 12.744V7.86L53.9219 7.752L53.9579 7.848V16.5H53.0819ZM60.9097 16.644C60.5017 16.644 60.1257 16.564 59.7817 16.404C59.4377 16.236 59.1417 16.004 58.8937 15.708C58.6457 15.412 58.4617 15.068 58.3417 14.676V12.324C58.4617 11.924 58.6457 11.58 58.8937 11.292C59.1417 10.996 59.4377 10.768 59.7817 10.608C60.1257 10.44 60.5017 10.356 60.9097 10.356C61.4457 10.356 61.9257 10.492 62.3497 10.764C62.7737 11.036 63.1097 11.408 63.3577 11.88C63.6137 12.352 63.7417 12.892 63.7417 13.5C63.7417 14.108 63.6137 14.648 63.3577 15.12C63.1097 15.592 62.7737 15.964 62.3497 16.236C61.9257 16.508 61.4457 16.644 60.9097 16.644ZM57.9097 16.5V7.86L58.7737 7.752L58.8097 7.848V12.744L58.6417 13.5L58.7857 14.256V16.5H57.9097ZM60.8737 15.768C61.2577 15.768 61.5977 15.672 61.8937 15.48C62.1897 15.288 62.4217 15.024 62.5897 14.688C62.7577 14.344 62.8417 13.948 62.8417 13.5C62.8417 13.052 62.7577 12.66 62.5897 12.324C62.4217 11.98 62.1897 11.712 61.8937 11.52C61.5977 11.328 61.2577 11.232 60.8737 11.232C60.4817 11.232 60.1297 11.328 59.8177 11.52C59.5057 11.712 59.2577 11.98 59.0737 12.324C58.8977 12.66 58.8097 13.052 58.8097 13.5C58.8097 13.948 58.8977 14.344 59.0737 14.688C59.2577 15.024 59.5057 15.288 59.8177 15.48C60.1297 15.672 60.4817 15.768 60.8737 15.768ZM65.3143 18.9V18.804L66.2863 16.5L66.5983 15.84L68.7703 10.5H69.7063V10.596L66.2263 18.9H65.3143ZM66.2983 16.5L63.8623 10.596V10.5H64.7983L66.8503 15.588V16.5H66.2983Z" fill="#4A5565"/>
<path d="M75.7036 10.9519H74.4982V10.0001H75.7036V8.1853H76.7779V10.0001H78.468V10.9519H76.7779V14.7718C76.7779 15.0425 76.8303 15.2371 76.9351 15.3555C77.0487 15.4655 77.2408 15.5205 77.5116 15.5205H78.6776V16.4723H77.4461C76.8172 16.4723 76.3674 16.3369 76.0966 16.0662C75.8346 15.7955 75.7036 15.3682 75.7036 14.7844V10.9519Z" fill="#030712"/>
<path d="M82.139 16.5485C81.4927 16.5485 80.9162 16.4089 80.4096 16.1297C79.9117 15.8505 79.5231 15.4613 79.2436 14.9621C78.9641 14.463 78.8243 13.8876 78.8243 13.2362C78.8243 12.5847 78.9641 12.0094 79.2436 11.5103C79.5231 11.0111 79.9117 10.6219 80.4096 10.3427C80.9162 10.0635 81.4927 9.92392 82.139 9.92392C82.7853 9.92392 83.3574 10.0635 83.8553 10.3427C84.3619 10.6219 84.7549 11.0111 85.0344 11.5103C85.3139 12.0094 85.4537 12.5847 85.4537 13.2362C85.4537 13.8876 85.3139 14.463 85.0344 14.9621C84.7549 15.4613 84.3619 15.8505 83.8553 16.1297C83.3574 16.4089 82.7853 16.5485 82.139 16.5485ZM82.139 15.622C82.5757 15.622 82.96 15.5205 83.2919 15.3175C83.6326 15.1144 83.8946 14.831 84.078 14.4672C84.2615 14.1034 84.3532 13.6931 84.3532 13.2362C84.3532 12.7793 84.2615 12.369 84.078 12.0052C83.8946 11.6414 83.6326 11.358 83.2919 11.1549C82.96 10.9519 82.5757 10.8503 82.139 10.8503C81.7023 10.8503 81.3136 10.9519 80.973 11.1549C80.6411 11.358 80.3834 11.6414 80.2 12.0052C80.0165 12.369 79.9248 12.7793 79.9248 13.2362C79.9248 13.6931 80.0165 14.1034 80.2 14.4672C80.3834 14.831 80.6411 15.1144 80.973 15.3175C81.3136 15.5205 81.7023 15.622 82.139 15.622Z" fill="#030712"/>
<path d="M92.8113 10.0001V16.155C92.8113 18.1094 91.7065 19.0866 89.4967 19.0866C88.632 19.0866 87.9245 18.8962 87.3742 18.5155C86.8327 18.1348 86.5182 17.5933 86.4309 16.8911H87.5314C87.6188 17.2972 87.8415 17.6102 88.1996 17.8302C88.5577 18.0502 89.0163 18.1602 89.5753 18.1602C91.0164 18.1602 91.737 17.4791 91.737 16.117V15.3555C91.2566 16.1508 90.4924 16.5485 89.4443 16.5485C88.8241 16.5485 88.2695 16.4173 87.7804 16.155C87.3 15.8928 86.92 15.512 86.6405 15.0129C86.3698 14.5137 86.2344 13.9215 86.2344 13.2362C86.2344 12.5847 86.3698 12.0094 86.6405 11.5103C86.92 11.0111 87.3043 10.6219 87.7935 10.3427C88.2826 10.0635 88.8328 9.92392 89.4443 9.92392C89.9858 9.92392 90.4487 10.0297 90.833 10.2412C91.2173 10.4442 91.5187 10.7361 91.737 11.1168L91.8811 10.0001H92.8113ZM89.5491 15.622C89.977 15.622 90.357 15.5247 90.6889 15.3301C91.0295 15.1271 91.2916 14.8479 91.475 14.4926C91.6584 14.1288 91.7501 13.7184 91.7501 13.2616C91.7501 12.7962 91.6584 12.3817 91.475 12.0179C91.2916 11.6456 91.0295 11.358 90.6889 11.1549C90.357 10.9519 89.977 10.8503 89.5491 10.8503C88.8853 10.8503 88.3481 11.0745 87.9376 11.5229C87.5358 11.9629 87.3349 12.534 87.3349 13.2362C87.3349 13.9384 87.5358 14.5137 87.9376 14.9621C88.3481 15.4021 88.8853 15.622 89.5491 15.622Z" fill="#030712"/>
<path d="M93.8236 13.2362C93.8236 12.5763 93.9546 11.9967 94.2166 11.4976C94.4874 10.9984 94.8629 10.6134 95.3433 10.3427C95.8237 10.0635 96.374 9.92392 96.9941 9.92392C97.6055 9.92392 98.1471 10.0466 98.6187 10.2919C99.0904 10.5373 99.4616 10.8926 99.7324 11.358C100.003 11.8233 100.147 12.369 100.165 12.9951C100.165 13.0881 100.156 13.2362 100.139 13.4392H94.9503V13.5281C94.9678 14.1626 95.1686 14.6702 95.553 15.051C95.9373 15.4317 96.4395 15.622 97.0596 15.622C97.54 15.622 97.9462 15.5078 98.2781 15.2794C98.6187 15.0425 98.8458 14.7168 98.9594 14.3022H100.047C99.9158 14.9621 99.5882 15.5036 99.0642 15.9266C98.5401 16.3412 97.8981 16.5485 97.1383 16.5485C96.4744 16.5485 95.8936 16.4131 95.3957 16.1424C94.8979 15.8632 94.5092 15.474 94.2297 14.9748C93.9589 14.4672 93.8236 13.8876 93.8236 13.2362ZM99.0511 12.5763C98.9987 12.0263 98.7847 11.5991 98.4091 11.2945C98.0423 10.9899 97.575 10.8376 97.0072 10.8376C96.5006 10.8376 96.0552 10.9984 95.6709 11.3199C95.2866 11.6414 95.0682 12.0602 95.0158 12.5763H99.0511Z" fill="#030712"/>
<path d="M101.544 10.9519H100.339V10.0001H101.544V8.1853H102.618V10.0001H104.308V10.9519H102.618V14.7718C102.618 15.0425 102.671 15.2371 102.775 15.3555C102.889 15.4655 103.081 15.5205 103.352 15.5205H104.518V16.4723H103.286C102.657 16.4723 102.208 16.3369 101.937 16.0662C101.675 15.7955 101.544 15.3682 101.544 14.7844V10.9519Z" fill="#030712"/>
<path d="M108.342 9.92392C109.154 9.92392 109.81 10.1608 110.307 10.6346C110.805 11.1084 111.054 11.8529 111.054 12.8682V16.4723H109.98V12.9316C109.98 12.2632 109.823 11.7556 109.508 11.4087C109.194 11.0534 108.744 10.8757 108.159 10.8757C107.539 10.8757 107.045 11.0872 106.678 11.5103C106.32 11.9333 106.141 12.5086 106.141 13.2362V16.4723H105.067V7.58883H106.141V11.0661C106.359 10.7277 106.648 10.4527 107.006 10.2412C107.373 10.0297 107.818 9.92392 108.342 9.92392Z" fill="#030712"/>
<path d="M111.972 13.2362C111.972 12.5763 112.103 11.9967 112.365 11.4976C112.636 10.9984 113.012 10.6134 113.492 10.3427C113.972 10.0635 114.523 9.92392 115.143 9.92392C115.754 9.92392 116.296 10.0466 116.767 10.2919C117.239 10.5373 117.61 10.8926 117.881 11.358C118.152 11.8233 118.296 12.369 118.313 12.9951C118.313 13.0881 118.305 13.2362 118.287 13.4392H113.099V13.5281C113.117 14.1626 113.317 14.6702 113.702 15.051C114.086 15.4317 114.588 15.622 115.208 15.622C115.689 15.622 116.095 15.5078 116.427 15.2794C116.767 15.0425 116.995 14.7168 117.108 14.3022H118.196C118.065 14.9621 117.737 15.5036 117.213 15.9266C116.689 16.3412 116.047 16.5485 115.287 16.5485C114.623 16.5485 114.042 16.4131 113.544 16.1424C113.047 15.8632 112.658 15.474 112.378 14.9748C112.108 14.4672 111.972 13.8876 111.972 13.2362ZM117.2 12.5763C117.147 12.0263 116.933 11.5991 116.558 11.2945C116.191 10.9899 115.724 10.8376 115.156 10.8376C114.649 10.8376 114.204 10.9984 113.82 11.3199C113.435 11.6414 113.217 12.0602 113.165 12.5763H117.2Z" fill="#030712"/>
<path d="M122.717 10.0001V11.0153H122.18C121.542 11.0153 121.084 11.2226 120.804 11.6372C120.534 12.0517 120.398 12.5636 120.398 13.1727V16.4723H119.324V10.0001H120.254L120.398 10.9772C120.59 10.6811 120.839 10.4442 121.145 10.2666C121.451 10.0889 121.874 10.0001 122.416 10.0001H122.717Z" fill="#030712"/>
<path d="M133.66 15.5205V16.4723H133.07C132.642 16.4723 132.336 16.3877 132.153 16.2185C131.97 16.0493 131.874 15.7997 131.865 15.4697C131.35 16.1889 130.603 16.5485 129.624 16.5485C128.882 16.5485 128.284 16.3792 127.83 16.0408C127.384 15.7024 127.161 15.2413 127.161 14.6575C127.161 14.0061 127.388 13.5069 127.843 13.16C128.306 12.8132 128.974 12.6397 129.847 12.6397H131.812V12.1956C131.812 11.7725 131.664 11.4426 131.367 11.2057C131.079 10.9688 130.673 10.8503 130.149 10.8503C129.686 10.8503 129.301 10.9519 128.996 11.1549C128.699 11.3495 128.515 11.6118 128.445 11.9417H127.371C127.45 11.3072 127.738 10.8123 128.236 10.4569C128.742 10.1016 129.397 9.92392 130.201 9.92392C131.057 9.92392 131.716 10.127 132.179 10.5331C132.651 10.9307 132.887 11.506 132.887 12.259V15.051C132.887 15.364 133.035 15.5205 133.332 15.5205H133.66ZM131.812 13.5154H129.742C128.747 13.5154 128.249 13.875 128.249 14.5941C128.249 14.9156 128.38 15.1736 128.642 15.3682C128.904 15.5628 129.258 15.6601 129.703 15.6601C130.358 15.6601 130.873 15.4951 131.249 15.1652C131.625 14.8268 131.812 14.3826 131.812 13.8326V13.5154Z" fill="#030712"/>
<path d="M134.807 7.5C135.008 7.5 135.174 7.56345 135.305 7.69036C135.436 7.81727 135.502 7.97802 135.502 8.17261C135.502 8.3672 135.436 8.52794 135.305 8.65485C135.174 8.78176 135.008 8.84521 134.807 8.84521C134.606 8.84521 134.441 8.78176 134.31 8.65485C134.178 8.52794 134.113 8.3672 134.113 8.17261C134.113 7.97802 134.178 7.81727 134.31 7.69036C134.441 7.56345 134.606 7.5 134.807 7.5ZM134.27 10.0001H135.345V16.4723H134.27V10.0001Z" fill="#030712"/>
<path d="M125.061 15.4868C125.061 16.0311 124.6 16.4723 124.031 16.4723C123.462 16.4723 123.001 16.0311 123.001 15.4868C123.001 14.9425 123.462 14.5013 124.031 14.5013C124.6 14.5013 125.061 14.9425 125.061 15.4868Z" fill="#0F6FFF"/>
</svg>
