<svg width="231" height="32" viewBox="0 0 231 32" fill="none" xmlns="http://www.w3.org/2000/svg">
<rect x="0.5" y="0.5" width="230" height="31" rx="15.5" fill="url(#paint0_linear_46_38)"/>
<rect x="0.5" y="0.5" width="230" height="31" rx="15.5" stroke="#D4D4D4"/>
<path d="M20.544 21L20.558 20.706L24.618 11.2H25.612V11.494L21.552 21H20.544ZM16.12 21V11.2H17.17V21H16.12ZM20.558 21L16.484 11.494V11.2H17.492L21.552 20.706V21H20.558ZM24.926 21V11.2H25.976V21H24.926ZM30.1549 21.168C29.6789 21.168 29.2496 21.0747 28.8669 20.888C28.4936 20.7013 28.1996 20.4447 27.9849 20.118C27.7702 19.7913 27.6629 19.4133 27.6629 18.984C27.6629 18.3773 27.8776 17.8873 28.3069 17.514C28.7456 17.1313 29.3476 16.912 30.1129 16.856L32.8009 16.66V17.64L30.3509 17.822C29.8096 17.8593 29.4036 17.976 29.1329 18.172C28.8716 18.368 28.7409 18.6387 28.7409 18.984C28.7409 19.32 28.8762 19.6 29.1469 19.824C29.4269 20.0387 29.7862 20.146 30.2249 20.146C30.6636 20.146 31.0602 20.048 31.4149 19.852C31.7789 19.6467 32.0636 19.376 32.2689 19.04C32.4836 18.6947 32.5909 18.312 32.5909 17.892V16.758C32.5909 16.198 32.4182 15.7407 32.0729 15.386C31.7369 15.022 31.2796 14.84 30.7009 14.84C30.2622 14.84 29.8842 14.9473 29.5669 15.162C29.2496 15.3673 29.0256 15.6707 28.8949 16.072H28.7409L27.8169 15.736C28.0409 15.1107 28.4049 14.6347 28.9089 14.308C29.4129 13.9813 30.0149 13.818 30.7149 13.818C31.6576 13.818 32.3809 14.1027 32.8849 14.672C33.3889 15.232 33.6409 16.03 33.6409 17.066V21H32.6189V18.97L32.9829 19.236C32.8709 19.6093 32.6749 19.9453 32.3949 20.244C32.1149 20.5333 31.7836 20.762 31.4009 20.93C31.0182 21.0887 30.6029 21.168 30.1549 21.168ZM38.4148 21.168C37.7988 21.168 37.2388 21.0093 36.7348 20.692C36.2401 20.3747 35.8434 19.9407 35.5448 19.39C35.2554 18.8393 35.1108 18.2093 35.1108 17.5C35.1108 16.7907 35.2554 16.1607 35.5448 15.61C35.8434 15.0593 36.2401 14.6253 36.7348 14.308C37.2388 13.9907 37.7988 13.832 38.4148 13.832C38.8908 13.832 39.3294 13.93 39.7308 14.126C40.1321 14.3127 40.4774 14.5787 40.7668 14.924C41.0561 15.26 41.2708 15.6613 41.4108 16.128V18.872C41.2708 19.3293 41.0561 19.7307 40.7668 20.076C40.4774 20.4213 40.1321 20.692 39.7308 20.888C39.3294 21.0747 38.8908 21.168 38.4148 21.168ZM38.4568 20.146C38.9234 20.146 39.3341 20.034 39.6888 19.81C40.0528 19.586 40.3374 19.278 40.5428 18.886C40.7574 18.4847 40.8648 18.0227 40.8648 17.5C40.8648 16.9773 40.7574 16.52 40.5428 16.128C40.3374 15.7267 40.0528 15.414 39.6888 15.19C39.3341 14.966 38.9234 14.854 38.4568 14.854C38.0181 14.854 37.6214 14.966 37.2668 15.19C36.9214 15.414 36.6508 15.7267 36.4548 16.128C36.2588 16.52 36.1608 16.9773 36.1608 17.5C36.1608 18.0227 36.2588 18.4847 36.4548 18.886C36.6508 19.278 36.9214 19.586 37.2668 19.81C37.6214 20.034 38.0181 20.146 38.4568 20.146ZM40.8928 21V18.382L41.0608 17.5L40.8648 16.618V10.92L41.8728 10.794L41.9148 10.906V21H40.8928ZM46.921 21.168C46.2583 21.168 45.6703 21.014 45.157 20.706C44.6437 20.398 44.2423 19.9687 43.953 19.418C43.6637 18.8673 43.519 18.228 43.519 17.5C43.519 16.772 43.659 16.1327 43.939 15.582C44.2283 15.0313 44.625 14.602 45.129 14.294C45.6423 13.986 46.2303 13.832 46.893 13.832C47.5463 13.832 48.1157 13.9907 48.601 14.308C49.0957 14.616 49.483 15.0547 49.763 15.624C50.043 16.184 50.183 16.8373 50.183 17.584V17.71L49.973 17.906H44.135V16.884H49.567L49.105 17.08C49.0677 16.6133 48.9463 16.2167 48.741 15.89C48.5357 15.554 48.2743 15.2973 47.957 15.12C47.6397 14.9427 47.285 14.854 46.893 14.854C46.4637 14.854 46.0717 14.9613 45.717 15.176C45.3623 15.3813 45.0823 15.6753 44.877 16.058C44.6717 16.4407 44.569 16.884 44.569 17.388V17.57C44.569 18.074 44.667 18.522 44.863 18.914C45.0683 19.2967 45.3483 19.6 45.703 19.824C46.0577 20.0387 46.4637 20.146 46.921 20.146C47.3783 20.146 47.7703 20.0387 48.097 19.824C48.4237 19.6093 48.6803 19.3153 48.867 18.942H49.021L49.903 19.334C49.6417 19.894 49.2497 20.342 48.727 20.678C48.2137 21.0047 47.6117 21.168 46.921 21.168ZM57.7765 21.168C57.1231 21.168 56.5445 21.0513 56.0405 20.818C55.5458 20.5753 55.1538 20.2393 54.8645 19.81C54.5845 19.3713 54.4445 18.8533 54.4445 18.256C54.4445 17.7053 54.6125 17.192 54.9485 16.716C55.2938 16.2307 55.8071 15.834 56.4885 15.526L57.9025 14.896C58.4158 14.6627 58.7611 14.4293 58.9385 14.196C59.1251 13.9533 59.2185 13.6733 59.2185 13.356C59.2185 12.9733 59.0925 12.6607 58.8405 12.418C58.5978 12.1753 58.2758 12.054 57.8745 12.054C57.4731 12.054 57.1418 12.1753 56.8805 12.418C56.6285 12.6607 56.5025 12.9733 56.5025 13.356C56.5025 13.5987 56.5818 13.8927 56.7405 14.238C56.8991 14.5833 57.1325 14.9287 57.4405 15.274L62.4805 20.888V21H61.1925L56.4885 15.75C56.0871 15.3113 55.8071 14.9007 55.6485 14.518C55.4898 14.126 55.4105 13.7387 55.4105 13.356C55.4105 12.8987 55.5131 12.4973 55.7185 12.152C55.9331 11.7973 56.2225 11.522 56.5865 11.326C56.9598 11.13 57.3891 11.032 57.8745 11.032C58.3598 11.032 58.7845 11.13 59.1485 11.326C59.5125 11.522 59.7971 11.7973 60.0025 12.152C60.2078 12.4973 60.3105 12.8987 60.3105 13.356C60.3105 13.8693 60.1518 14.322 59.8345 14.714C59.5265 15.0967 59.0831 15.428 58.5045 15.708L57.0905 16.394C56.6051 16.6273 56.2225 16.898 55.9425 17.206C55.6718 17.5047 55.5365 17.878 55.5365 18.326C55.5365 18.69 55.6345 19.012 55.8305 19.292C56.0265 19.5627 56.2925 19.7727 56.6285 19.922C56.9738 20.0713 57.3611 20.146 57.7905 20.146C58.6771 20.146 59.4051 19.81 59.9745 19.138C60.5438 18.466 60.9078 17.5233 61.0665 16.31L61.2205 16.282L62.0745 16.59C61.9345 17.5607 61.6685 18.3913 61.2765 19.082C60.8938 19.7633 60.4038 20.2813 59.8065 20.636C59.2185 20.9907 58.5418 21.168 57.7765 21.168ZM70.107 21.168C69.631 21.168 69.1923 21.0747 68.791 20.888C68.3896 20.692 68.0443 20.4213 67.755 20.076C67.4656 19.7307 67.251 19.3293 67.111 18.872V16.128C67.251 15.6613 67.4656 15.26 67.755 14.924C68.0443 14.5787 68.3896 14.3127 68.791 14.126C69.1923 13.93 69.631 13.832 70.107 13.832C70.7323 13.832 71.2923 13.9907 71.787 14.308C72.2816 14.6253 72.6736 15.0593 72.963 15.61C73.2616 16.1607 73.411 16.7907 73.411 17.5C73.411 18.2093 73.2616 18.8393 72.963 19.39C72.6736 19.9407 72.2816 20.3747 71.787 20.692C71.2923 21.0093 70.7323 21.168 70.107 21.168ZM66.607 23.8V14H67.629V16.618L67.461 17.5L67.657 18.382V23.8H66.607ZM70.065 20.146C70.513 20.146 70.9096 20.034 71.255 19.81C71.6003 19.586 71.871 19.278 72.067 18.886C72.263 18.4847 72.361 18.0227 72.361 17.5C72.361 16.9773 72.263 16.52 72.067 16.128C71.871 15.7267 71.6003 15.414 71.255 15.19C70.9096 14.966 70.513 14.854 70.065 14.854C69.6076 14.854 69.197 14.966 68.833 15.19C68.469 15.414 68.1796 15.7267 67.965 16.128C67.7596 16.52 67.657 16.9773 67.657 17.5C67.657 18.0227 67.7596 18.4847 67.965 18.886C68.1796 19.278 68.469 19.586 68.833 19.81C69.197 20.034 69.6076 20.146 70.065 20.146ZM77.9708 21.168C77.2988 21.168 76.7015 21.014 76.1788 20.706C75.6655 20.398 75.2595 19.9687 74.9608 19.418C74.6715 18.8673 74.5268 18.228 74.5268 17.5C74.5268 16.772 74.6715 16.1327 74.9608 15.582C75.2595 15.0313 75.6655 14.602 76.1788 14.294C76.7015 13.986 77.2988 13.832 77.9708 13.832C78.6521 13.832 79.2495 13.986 79.7628 14.294C80.2761 14.602 80.6775 15.0313 80.9668 15.582C81.2655 16.1327 81.4148 16.772 81.4148 17.5C81.4148 18.228 81.2655 18.8673 80.9668 19.418C80.6775 19.9687 80.2761 20.398 79.7628 20.706C79.2495 21.014 78.6521 21.168 77.9708 21.168ZM77.9708 20.146C78.4375 20.146 78.8481 20.0387 79.2028 19.824C79.5668 19.6 79.8515 19.292 80.0568 18.9C80.2621 18.4987 80.3648 18.032 80.3648 17.5C80.3648 16.9587 80.2621 16.492 80.0568 16.1C79.8515 15.708 79.5668 15.4047 79.2028 15.19C78.8481 14.966 78.4375 14.854 77.9708 14.854C77.5041 14.854 77.0888 14.966 76.7248 15.19C76.3701 15.4047 76.0901 15.708 75.8848 16.1C75.6795 16.492 75.5768 16.9587 75.5768 17.5C75.5768 18.032 75.6795 18.4987 75.8848 18.9C76.0901 19.292 76.3701 19.6 76.7248 19.824C77.0888 20.0387 77.5041 20.146 77.9708 20.146ZM84.1691 21L81.9151 14.112V14H82.9651L84.8411 19.88L85.1491 21H84.1691ZM84.1691 21L84.5611 19.88L86.5631 14H87.5151V14.112L85.1491 21H84.1691ZM88.9291 21L86.5631 14.112V14H87.5151L89.5171 19.88L89.9091 21H88.9291ZM88.9291 21L89.2371 19.88L91.0991 14H92.1631V14.112L89.9091 21H88.9291ZM96.0577 21.168C95.395 21.168 94.807 21.014 94.2937 20.706C93.7804 20.398 93.379 19.9687 93.0897 19.418C92.8004 18.8673 92.6557 18.228 92.6557 17.5C92.6557 16.772 92.7957 16.1327 93.0757 15.582C93.365 15.0313 93.7617 14.602 94.2657 14.294C94.779 13.986 95.367 13.832 96.0297 13.832C96.683 13.832 97.2524 13.9907 97.7377 14.308C98.2324 14.616 98.6197 15.0547 98.8997 15.624C99.1797 16.184 99.3197 16.8373 99.3197 17.584V17.71L99.1097 17.906H93.2717V16.884H98.7037L98.2417 17.08C98.2044 16.6133 98.083 16.2167 97.8777 15.89C97.6724 15.554 97.411 15.2973 97.0937 15.12C96.7764 14.9427 96.4217 14.854 96.0297 14.854C95.6004 14.854 95.2084 14.9613 94.8537 15.176C94.499 15.3813 94.219 15.6753 94.0137 16.058C93.8084 16.4407 93.7057 16.884 93.7057 17.388V17.57C93.7057 18.074 93.8037 18.522 93.9997 18.914C94.205 19.2967 94.485 19.6 94.8397 19.824C95.1944 20.0387 95.6004 20.146 96.0577 20.146C96.515 20.146 96.907 20.0387 97.2337 19.824C97.5604 19.6093 97.817 19.3153 98.0037 18.942H98.1577L99.0397 19.334C98.7784 19.894 98.3864 20.342 97.8637 20.678C97.3504 21.0047 96.7484 21.168 96.0577 21.168ZM100.855 21V14H101.877V16.03L101.569 15.764C101.728 15.2227 102.031 14.7933 102.479 14.476C102.936 14.1587 103.45 14 104.019 14H104.747V15.022H103.851C103.468 15.022 103.128 15.1153 102.829 15.302C102.54 15.4887 102.311 15.7453 102.143 16.072C101.984 16.3987 101.905 16.7813 101.905 17.22V21H100.855ZM108.581 21.168C107.918 21.168 107.33 21.014 106.817 20.706C106.304 20.398 105.902 19.9687 105.613 19.418C105.324 18.8673 105.179 18.228 105.179 17.5C105.179 16.772 105.319 16.1327 105.599 15.582C105.888 15.0313 106.285 14.602 106.789 14.294C107.302 13.986 107.89 13.832 108.553 13.832C109.206 13.832 109.776 13.9907 110.261 14.308C110.756 14.616 111.143 15.0547 111.423 15.624C111.703 16.184 111.843 16.8373 111.843 17.584V17.71L111.633 17.906H105.795V16.884H111.227L110.765 17.08C110.728 16.6133 110.606 16.2167 110.401 15.89C110.196 15.554 109.934 15.2973 109.617 15.12C109.3 14.9427 108.945 14.854 108.553 14.854C108.124 14.854 107.732 14.9613 107.377 15.176C107.022 15.3813 106.742 15.6753 106.537 16.058C106.332 16.4407 106.229 16.884 106.229 17.388V17.57C106.229 18.074 106.327 18.522 106.523 18.914C106.728 19.2967 107.008 19.6 107.363 19.824C107.718 20.0387 108.124 20.146 108.581 20.146C109.038 20.146 109.43 20.0387 109.757 19.824C110.084 19.6093 110.34 19.3153 110.527 18.942H110.681L111.563 19.334C111.302 19.894 110.91 20.342 110.387 20.678C109.874 21.0047 109.272 21.168 108.581 21.168ZM116.262 21.168C115.646 21.168 115.086 21.0093 114.582 20.692C114.088 20.3747 113.691 19.9407 113.392 19.39C113.103 18.8393 112.958 18.2093 112.958 17.5C112.958 16.7907 113.103 16.1607 113.392 15.61C113.691 15.0593 114.088 14.6253 114.582 14.308C115.086 13.9907 115.646 13.832 116.262 13.832C116.738 13.832 117.177 13.93 117.578 14.126C117.98 14.3127 118.325 14.5787 118.614 14.924C118.904 15.26 119.118 15.6613 119.258 16.128V18.872C119.118 19.3293 118.904 19.7307 118.614 20.076C118.325 20.4213 117.98 20.692 117.578 20.888C117.177 21.0747 116.738 21.168 116.262 21.168ZM116.304 20.146C116.771 20.146 117.182 20.034 117.536 19.81C117.9 19.586 118.185 19.278 118.39 18.886C118.605 18.4847 118.712 18.0227 118.712 17.5C118.712 16.9773 118.605 16.52 118.39 16.128C118.185 15.7267 117.9 15.414 117.536 15.19C117.182 14.966 116.771 14.854 116.304 14.854C115.866 14.854 115.469 14.966 115.114 15.19C114.769 15.414 114.498 15.7267 114.302 16.128C114.106 16.52 114.008 16.9773 114.008 17.5C114.008 18.0227 114.106 18.4847 114.302 18.886C114.498 19.278 114.769 19.586 115.114 19.81C115.469 20.034 115.866 20.146 116.304 20.146ZM118.74 21V18.382L118.908 17.5L118.712 16.618V10.92L119.72 10.794L119.762 10.906V21H118.74ZM128.433 21.168C127.957 21.168 127.518 21.0747 127.117 20.888C126.715 20.692 126.37 20.4213 126.081 20.076C125.791 19.7307 125.577 19.3293 125.437 18.872V16.128C125.577 15.6613 125.791 15.26 126.081 14.924C126.37 14.5787 126.715 14.3127 127.117 14.126C127.518 13.93 127.957 13.832 128.433 13.832C129.058 13.832 129.618 13.9907 130.113 14.308C130.607 14.6253 130.999 15.0593 131.289 15.61C131.587 16.1607 131.737 16.7907 131.737 17.5C131.737 18.2093 131.587 18.8393 131.289 19.39C130.999 19.9407 130.607 20.3747 130.113 20.692C129.618 21.0093 129.058 21.168 128.433 21.168ZM124.933 21V10.92L125.941 10.794L125.983 10.906V16.618L125.787 17.5L125.955 18.382V21H124.933ZM128.391 20.146C128.839 20.146 129.235 20.034 129.581 19.81C129.926 19.586 130.197 19.278 130.393 18.886C130.589 18.4847 130.687 18.0227 130.687 17.5C130.687 16.9773 130.589 16.52 130.393 16.128C130.197 15.7267 129.926 15.414 129.581 15.19C129.235 14.966 128.839 14.854 128.391 14.854C127.933 14.854 127.523 14.966 127.159 15.19C126.795 15.414 126.505 15.7267 126.291 16.128C126.085 16.52 125.983 16.9773 125.983 17.5C125.983 18.0227 126.085 18.4847 126.291 18.886C126.505 19.278 126.795 19.586 127.159 19.81C127.523 20.034 127.933 20.146 128.391 20.146ZM133.852 23.8V23.688L134.986 21L135.35 20.23L137.884 14H138.976V14.112L134.916 23.8H133.852ZM135 21L132.158 14.112V14H133.25L135.644 19.936V21H135Z" fill="#4A5565"/>
<path d="M146.381 14.2189H144.998V13.0556H146.381V10.8376H147.614V13.0556H149.553V14.2189H147.614V18.8877C147.614 19.2186 147.674 19.4564 147.794 19.6012C147.925 19.7356 148.145 19.8028 148.456 19.8028H149.794V20.9662H148.381C147.659 20.9662 147.143 20.8007 146.832 20.4698C146.532 20.1389 146.381 19.6167 146.381 18.9032V14.2189Z" fill="#030712"/>
<path d="M153.766 21.0592C153.024 21.0592 152.363 20.8886 151.782 20.5474C151.21 20.2061 150.764 19.7305 150.443 19.1204C150.123 18.5103 149.962 17.8071 149.962 17.0109C149.962 16.2147 150.123 15.5115 150.443 14.9014C150.764 14.2913 151.21 13.8157 151.782 13.4744C152.363 13.1332 153.024 12.9626 153.766 12.9626C154.508 12.9626 155.164 13.1332 155.736 13.4744C156.317 13.8157 156.768 14.2913 157.089 14.9014C157.409 15.5115 157.57 16.2147 157.57 17.0109C157.57 17.8071 157.409 18.5103 157.089 19.1204C156.768 19.7305 156.317 20.2061 155.736 20.5474C155.164 20.8886 154.508 21.0592 153.766 21.0592ZM153.766 19.9269C154.267 19.9269 154.708 19.8028 155.089 19.5547C155.48 19.3065 155.781 18.9601 155.991 18.5154C156.202 18.0708 156.307 17.5693 156.307 17.0109C156.307 16.4525 156.202 15.951 155.991 15.5063C155.781 15.0617 155.48 14.7153 155.089 14.4671C154.708 14.2189 154.267 14.0949 153.766 14.0949C153.265 14.0949 152.819 14.2189 152.428 14.4671C152.047 14.7153 151.751 15.0617 151.541 15.5063C151.33 15.951 151.225 16.4525 151.225 17.0109C151.225 17.5693 151.33 18.0708 151.541 18.5154C151.751 18.9601 152.047 19.3065 152.428 19.5547C152.819 19.8028 153.265 19.9269 153.766 19.9269Z" fill="#030712"/>
<path d="M166.013 13.0556V20.5784C166.013 22.9671 164.745 24.1614 162.209 24.1614C161.217 24.1614 160.405 23.9287 159.774 23.4634C159.152 22.9981 158.791 22.3363 158.691 21.478H159.954C160.054 21.9744 160.31 22.357 160.721 22.6258C161.132 22.8947 161.658 23.0291 162.3 23.0291C163.953 23.0291 164.78 22.1967 164.78 20.5319V19.6012C164.229 20.5732 163.352 21.0592 162.149 21.0592C161.438 21.0592 160.801 20.8989 160.24 20.5784C159.689 20.2578 159.253 19.7925 158.932 19.1824C158.621 18.5723 158.466 17.8485 158.466 17.0109C158.466 16.2147 158.621 15.5115 158.932 14.9014C159.253 14.2913 159.694 13.8157 160.255 13.4744C160.816 13.1332 161.448 12.9626 162.149 12.9626C162.771 12.9626 163.302 13.0918 163.743 13.3503C164.184 13.5985 164.53 13.9553 164.78 14.4206L164.946 13.0556H166.013ZM162.269 19.9269C162.761 19.9269 163.197 19.808 163.577 19.5702C163.968 19.322 164.269 18.9808 164.48 18.5465C164.69 18.1018 164.795 17.6003 164.795 17.0419C164.795 16.4732 164.69 15.9665 164.48 15.5219C164.269 15.0669 163.968 14.7153 163.577 14.4671C163.197 14.2189 162.761 14.0949 162.269 14.0949C161.508 14.0949 160.891 14.3689 160.42 14.9169C159.959 15.4546 159.729 16.1526 159.729 17.0109C159.729 17.8692 159.959 18.5723 160.42 19.1204C160.891 19.6581 161.508 19.9269 162.269 19.9269Z" fill="#030712"/>
<path d="M167.175 17.0109C167.175 16.2043 167.325 15.496 167.626 14.8859C167.936 14.2758 168.367 13.8053 168.919 13.4744C169.47 13.1332 170.101 12.9626 170.813 12.9626C171.515 12.9626 172.136 13.1125 172.677 13.4124C173.218 13.7123 173.644 14.1466 173.955 14.7153C174.266 15.284 174.431 15.951 174.451 16.7162C174.451 16.8299 174.441 17.0109 174.421 17.2591H168.468V17.3676C168.488 18.1432 168.718 18.7636 169.159 19.2289C169.6 19.6943 170.177 19.9269 170.888 19.9269C171.439 19.9269 171.905 19.7873 172.286 19.5081C172.677 19.2186 172.938 18.8205 173.068 18.3138H174.316C174.166 19.1204 173.79 19.7822 173.188 20.2992C172.587 20.8059 171.85 21.0592 170.978 21.0592C170.217 21.0592 169.55 20.8938 168.979 20.5629C168.407 20.2216 167.961 19.746 167.641 19.1359C167.33 18.5154 167.175 17.8071 167.175 17.0109ZM173.173 16.2043C173.113 15.5322 172.868 15.01 172.437 14.6377C172.016 14.2655 171.479 14.0793 170.828 14.0793C170.247 14.0793 169.735 14.2758 169.294 14.6688C168.853 15.0617 168.603 15.5736 168.543 16.2043H173.173Z" fill="#030712"/>
<path d="M176.034 14.2189H174.651V13.0556H176.034V10.8376H177.267V13.0556H179.206V14.2189H177.267V18.8877C177.267 19.2186 177.327 19.4564 177.447 19.6012C177.578 19.7356 177.798 19.8028 178.109 19.8028H179.447V20.9662H178.034C177.312 20.9662 176.796 20.8007 176.485 20.4698C176.184 20.1389 176.034 19.6167 176.034 18.9032V14.2189Z" fill="#030712"/>
<path d="M183.835 12.9626C184.767 12.9626 185.519 13.2521 186.09 13.8312C186.662 14.4102 186.947 15.3202 186.947 16.5611V20.9662H185.715V16.6386C185.715 15.8217 185.534 15.2013 185.173 14.7773C184.813 14.343 184.296 14.1259 183.625 14.1259C182.913 14.1259 182.347 14.3844 181.926 14.9014C181.515 15.4184 181.309 16.1216 181.309 17.0109V20.9662H180.077V10.1086H181.309V14.3585C181.56 13.9449 181.891 13.6089 182.302 13.3503C182.723 13.0918 183.234 12.9626 183.835 12.9626Z" fill="#030712"/>
<path d="M188.001 17.0109C188.001 16.2043 188.151 15.496 188.452 14.8859C188.763 14.2758 189.194 13.8053 189.745 13.4744C190.296 13.1332 190.928 12.9626 191.639 12.9626C192.341 12.9626 192.962 13.1125 193.504 13.4124C194.045 13.7123 194.471 14.1466 194.782 14.7153C195.092 15.284 195.258 15.951 195.278 16.7162C195.278 16.8299 195.268 17.0109 195.248 17.2591H189.294V17.3676C189.314 18.1432 189.545 18.7636 189.986 19.2289C190.427 19.6943 191.003 19.9269 191.715 19.9269C192.266 19.9269 192.732 19.7873 193.113 19.5081C193.504 19.2186 193.764 18.8205 193.895 18.3138H195.142C194.992 19.1204 194.616 19.7822 194.015 20.2992C193.413 20.8059 192.677 21.0592 191.805 21.0592C191.043 21.0592 190.376 20.8938 189.805 20.5629C189.234 20.2216 188.788 19.746 188.467 19.1359C188.156 18.5154 188.001 17.8071 188.001 17.0109ZM194 16.2043C193.94 15.5322 193.694 15.01 193.263 14.6377C192.842 14.2655 192.306 14.0793 191.654 14.0793C191.073 14.0793 190.562 14.2758 190.121 14.6688C189.68 15.0617 189.429 15.5736 189.369 16.2043H194Z" fill="#030712"/>
<path d="M200.331 13.0556V14.2965H199.715C198.983 14.2965 198.457 14.5498 198.136 15.0565C197.826 15.5632 197.67 16.1888 197.67 16.9333V20.9662H196.437V13.0556H197.505L197.67 14.25C197.891 13.888 198.176 13.5985 198.527 13.3814C198.878 13.1642 199.364 13.0556 199.985 13.0556H200.331Z" fill="#030712"/>
<path d="M212.888 19.8028V20.9662H212.212C211.721 20.9662 211.37 20.8628 211.159 20.6559C210.949 20.4491 210.839 20.1441 210.829 19.7408C210.237 20.6197 209.38 21.0592 208.258 21.0592C207.406 21.0592 206.719 20.8524 206.198 20.4388C205.687 20.0252 205.431 19.4616 205.431 18.7481C205.431 17.9519 205.692 17.3418 206.213 16.9178C206.744 16.4939 207.511 16.2819 208.513 16.2819H210.768V15.739C210.768 15.222 210.598 14.8187 210.257 14.5292C209.926 14.2396 209.46 14.0949 208.859 14.0949C208.328 14.0949 207.887 14.2189 207.536 14.4671C207.195 14.705 206.985 15.0255 206.905 15.4288H205.672C205.762 14.6532 206.093 14.0483 206.664 13.614C207.245 13.1797 207.997 12.9626 208.919 12.9626C209.901 12.9626 210.658 13.2107 211.189 13.7071C211.731 14.1931 212.001 14.8963 212.001 15.8166V19.2289C212.001 19.6115 212.172 19.8028 212.512 19.8028H212.888ZM210.768 17.3521H208.393C207.25 17.3521 206.679 17.7916 206.679 18.6706C206.679 19.0635 206.829 19.3789 207.13 19.6167C207.431 19.8545 207.837 19.9735 208.348 19.9735C209.1 19.9735 209.691 19.7718 210.122 19.3685C210.553 18.9549 210.768 18.412 210.768 17.7399V17.3521Z" fill="#030712"/>
<path d="M214.205 10C214.436 10 214.626 10.0776 214.777 10.2327C214.927 10.3878 215.002 10.5842 215.002 10.8221C215.002 11.0599 214.927 11.2564 214.777 11.4115C214.626 11.5666 214.436 11.6441 214.205 11.6441C213.975 11.6441 213.784 11.5666 213.634 11.4115C213.484 11.2564 213.408 11.0599 213.408 10.8221C213.408 10.5842 213.484 10.3878 213.634 10.2327C213.784 10.0776 213.975 10 214.205 10ZM213.589 13.0556H214.822V20.9662H213.589V13.0556Z" fill="#030712"/>
<path d="M203.021 19.7617C203.021 20.4269 202.491 20.9662 201.839 20.9662C201.186 20.9662 200.657 20.4269 200.657 19.7617C200.657 19.0964 201.186 18.5571 201.839 18.5571C202.491 18.5571 203.021 19.0964 203.021 19.7617Z" fill="#0F6FFF"/>
<defs>
<linearGradient id="paint0_linear_46_38" x1="1" y1="16" x2="230" y2="16" gradientUnits="userSpaceOnUse">
<stop stop-color="#F5F5F5"/>
<stop offset="1" stop-color="white"/>
</linearGradient>
</defs>
</svg>
